<svg xmlns="http://www.w3.org/2000/svg" xmlns:xlink="http://www.w3.org/1999/xlink" viewBox="0 0 1204.3 744.43"><defs><style>.a{fill:none;}.b{clip-path:url(#a);}.c{fill:url(#b);}.d{fill:url(#c);}.e{fill:url(#d);}.f{fill:url(#e);}.g{fill:url(#f);}.h{fill:url(#g);}.i{fill:url(#h);}.j{fill:url(#i);}.k{fill:url(#j);}.l{fill:url(#k);}.m{fill:url(#l);}.n{fill:url(#m);}.o{fill:url(#n);}.p{fill:url(#o);}.q{fill:url(#p);}.r{fill:url(#q);}.s{fill:url(#r);}.t{fill:url(#s);}.u{fill:url(#t);}.v{fill:url(#u);}.w{fill:url(#v);}.x{fill:url(#w);}.y{fill:url(#x);}.z{fill:url(#y);}.aa{fill:url(#z);}.ab{fill:url(#aa);}.ac{fill:url(#ab);}.ad{fill:url(#ac);}.ae{fill:url(#ad);}.af{fill:url(#ae);}.ag{fill:url(#af);}.ah{fill:url(#ag);}.ai{fill:url(#ah);}.aj{fill:url(#ai);}.ak{fill:url(#aj);}.al{fill:url(#ak);}.am{fill:url(#al);}.an{fill:url(#am);}.ao{fill:url(#an);}.ap{fill:url(#ao);}.aq{fill:url(#ap);}.ar{fill:url(#aq);}.as{fill:url(#ar);}.at{fill:url(#as);}.au{fill:url(#at);}.av{fill:url(#au);}.aw{fill:url(#av);}.ax{fill:url(#aw);}.ay{fill:url(#ax);}.az{fill:url(#ay);}.ba{fill:url(#az);}.bb{fill:url(#ba);}.bc{fill:url(#bb);}.bd{fill:url(#bc);}.be{fill:url(#bd);}.bf{fill:url(#be);}.bg{fill:url(#bf);}.bh{fill:url(#bg);}.bi{fill:url(#bh);}.bj{fill:url(#bi);}.bk{fill:url(#bj);}.bl{fill:url(#bk);}.bm{fill:url(#bl);}.bn{fill:url(#bm);}.bo{fill:url(#bn);}.bp{fill:url(#bo);}.bq{fill:url(#bp);}.br{fill:url(#bq);}.bs{fill:url(#br);}.bt{fill:url(#bs);}.bu{fill:url(#bt);}.bv{fill:url(#bu);}.bw{fill:url(#bv);}.bx{fill:url(#bw);}.by{fill:url(#bx);}.bz{fill:url(#by);}.ca{fill:url(#bz);}.cb{fill:url(#ca);}.cc{fill:url(#cb);}.cd{fill:url(#cc);}.ce{fill:url(#cd);}.cf{fill:url(#ce);}.cg{fill:url(#cf);}.ch{fill:url(#cg);}.ci{fill:url(#ch);}.cj{fill:url(#ci);}.ck{fill:url(#cj);}.cl{fill:url(#ck);}.cm{fill:url(#cl);}</style><clipPath id="a"><rect class="a" x="144.3" y="70.94" width="841.89" height="595.28"/></clipPath><linearGradient id="b" x1="144.3" y1="368.58" x2="986.19" y2="368.58" gradientUnits="userSpaceOnUse"><stop offset="0" stop-color="#e51e8e"/><stop offset="1" stop-color="#1e6f8c"/></linearGradient><linearGradient id="c" y1="356.4" x2="130.22" y2="356.4" gradientUnits="userSpaceOnUse"><stop offset="0" stop-color="#f7d00c"/><stop offset="1" stop-color="#008f47" stop-opacity="0.3"/></linearGradient><linearGradient id="d" x1="21.64" y1="356.02" x2="135.13" y2="356.02" xlink:href="#c"/><linearGradient id="e" x1="43.28" y1="355.64" x2="140.03" y2="355.64" xlink:href="#c"/><linearGradient id="f" x1="61.55" y1="355.25" x2="144.93" y2="355.25" xlink:href="#c"/><linearGradient id="g" x1="78.25" y1="354.87" x2="150.29" y2="354.87" xlink:href="#c"/><linearGradient id="h" x1="94.94" y1="354.48" x2="160.47" y2="354.48" xlink:href="#c"/><linearGradient id="i" x1="111.63" y1="354.09" x2="170.65" y2="354.09" xlink:href="#c"/><linearGradient id="j" x1="128.31" y1="353.71" x2="180.83" y2="353.71" xlink:href="#c"/><linearGradient id="k" x1="144.99" y1="353.32" x2="191.01" y2="353.32" xlink:href="#c"/><linearGradient id="l" x1="161.66" y1="352.93" x2="201.2" y2="352.93" xlink:href="#c"/><linearGradient id="m" x1="176.16" y1="352.52" x2="219.47" y2="352.52" xlink:href="#c"/><linearGradient id="n" x1="181.04" y1="352.15" x2="241.12" y2="352.15" xlink:href="#c"/><linearGradient id="o" x1="185.92" y1="351.79" x2="262.77" y2="351.79" xlink:href="#c"/><linearGradient id="p" x1="190.81" y1="351.43" x2="284.42" y2="351.43" xlink:href="#c"/><linearGradient id="q" x1="195.7" y1="351.07" x2="306.07" y2="351.07" xlink:href="#c"/><linearGradient id="r" x1="200.6" y1="350.7" x2="327.71" y2="350.7" xlink:href="#c"/><linearGradient id="s" x1="205.49" y1="350.34" x2="349.35" y2="350.34" xlink:href="#c"/><linearGradient id="t" x1="214.49" y1="350.34" x2="358.35" y2="350.34" xlink:href="#c"/><linearGradient id="u" x1="220.5" y1="350.35" x2="367.54" y2="350.35" xlink:href="#c"/><linearGradient id="v" x1="226.51" y1="350.36" x2="376.73" y2="350.36" xlink:href="#c"/><linearGradient id="w" x1="232.52" y1="350.37" x2="385.92" y2="350.37" xlink:href="#c"/><linearGradient id="x" x1="238.52" y1="350.38" x2="395.1" y2="350.38" xlink:href="#c"/><linearGradient id="y" x1="244.53" y1="350.39" x2="404.29" y2="350.39" xlink:href="#c"/><linearGradient id="z" x1="250.53" y1="350.4" x2="413.48" y2="350.4" xlink:href="#c"/><linearGradient id="aa" x1="256.54" y1="350.4" x2="422.67" y2="350.4" xlink:href="#c"/><linearGradient id="ab" x1="262.54" y1="350.41" x2="431.85" y2="350.41" xlink:href="#c"/><linearGradient id="ac" x1="268.55" y1="350.42" x2="441.04" y2="350.42" xlink:href="#c"/><linearGradient id="ad" x1="274.55" y1="350.43" x2="454.39" y2="350.43" xlink:href="#c"/><linearGradient id="ae" x1="280.55" y1="350.43" x2="469.69" y2="350.43" xlink:href="#c"/><linearGradient id="af" x1="286.56" y1="350.44" x2="484.98" y2="350.44" xlink:href="#c"/><linearGradient id="ag" x1="292.56" y1="350.45" x2="500.28" y2="350.45" xlink:href="#c"/><linearGradient id="ah" x1="298.56" y1="350.45" x2="515.58" y2="350.45" xlink:href="#c"/><linearGradient id="ai" x1="304.57" y1="350.46" x2="530.88" y2="350.46" xlink:href="#c"/><linearGradient id="aj" x1="310.57" y1="350.47" x2="546.18" y2="350.47" xlink:href="#c"/><linearGradient id="ak" x1="316.57" y1="350.44" x2="558.19" y2="350.44" xlink:href="#c"/><linearGradient id="al" x1="340.27" y1="352.84" x2="563.9" y2="352.84" xlink:href="#c"/><linearGradient id="am" x1="363.96" y1="355.24" x2="569.62" y2="355.24" xlink:href="#c"/><linearGradient id="an" x1="387.66" y1="357.64" x2="575.34" y2="357.64" xlink:href="#c"/><linearGradient id="ao" x1="411.37" y1="360.03" x2="581.07" y2="360.03" xlink:href="#c"/><linearGradient id="ap" x1="435.07" y1="362.43" x2="589.13" y2="362.43" xlink:href="#c"/><linearGradient id="aq" x1="458.78" y1="364.82" x2="602.89" y2="364.82" xlink:href="#c"/><linearGradient id="ar" x1="482.5" y1="367.21" x2="616.64" y2="367.21" xlink:href="#c"/><linearGradient id="as" x1="506.21" y1="369.6" x2="630.38" y2="369.6" xlink:href="#c"/><linearGradient id="at" x1="529.94" y1="371.99" x2="644.13" y2="371.99" xlink:href="#c"/><linearGradient id="au" x1="544.01" y1="374.45" x2="657.87" y2="374.45" xlink:href="#c"/><linearGradient id="av" x1="554.85" y1="376.92" x2="671.62" y2="376.92" xlink:href="#c"/><linearGradient id="aw" x1="563.82" y1="376.97" x2="680.62" y2="376.97" xlink:href="#c"/><linearGradient id="ax" x1="577.96" y1="375.6" x2="696.05" y2="375.6" xlink:href="#c"/><linearGradient id="ay" x1="592.11" y1="374.23" x2="711.49" y2="374.23" xlink:href="#c"/><linearGradient id="az" x1="606.25" y1="372.86" x2="726.92" y2="372.86" xlink:href="#c"/><linearGradient id="ba" x1="620.39" y1="371.48" x2="742.35" y2="371.48" xlink:href="#c"/><linearGradient id="bb" x1="627.57" y1="370.16" x2="757.78" y2="370.16" xlink:href="#c"/><linearGradient id="bc" x1="632.21" y1="368.84" x2="773.21" y2="368.84" xlink:href="#c"/><linearGradient id="bd" x1="636.85" y1="367.53" x2="788.63" y2="367.53" xlink:href="#c"/><linearGradient id="be" x1="641.49" y1="366.22" x2="804.06" y2="366.22" xlink:href="#c"/><linearGradient id="bf" x1="646.14" y1="364.9" x2="819.48" y2="364.9" xlink:href="#c"/><linearGradient id="bg" x1="650.79" y1="363.59" x2="834.91" y2="363.59" xlink:href="#c"/><linearGradient id="bh" x1="655.44" y1="362.28" x2="850.33" y2="362.28" gradientTransform="translate(909.32 -458.46) rotate(75.1)" xlink:href="#c"/><linearGradient id="bi" x1="660.75" y1="362.61" x2="868.51" y2="362.61" gradientTransform="translate(904.96 -471.93) rotate(74.17)" xlink:href="#c"/><linearGradient id="bj" x1="666.23" y1="362.26" x2="877.93" y2="362.26" xlink:href="#c"/><linearGradient id="bk" x1="671.71" y1="361.92" x2="887.35" y2="361.92" xlink:href="#c"/><linearGradient id="bl" x1="677.19" y1="361.57" x2="896.77" y2="361.57" xlink:href="#c"/><linearGradient id="bm" x1="682.67" y1="361.23" x2="906.19" y2="361.23" xlink:href="#c"/><linearGradient id="bn" x1="688.15" y1="360.88" x2="915.61" y2="360.88" xlink:href="#c"/><linearGradient id="bo" x1="693.64" y1="360.54" x2="925.03" y2="360.54" xlink:href="#c"/><linearGradient id="bp" x1="699.12" y1="360.19" x2="934.45" y2="360.19" xlink:href="#c"/><linearGradient id="bq" x1="704.61" y1="359.84" x2="943.87" y2="359.84" xlink:href="#c"/><linearGradient id="br" x1="710.1" y1="359.49" x2="953.29" y2="359.49" xlink:href="#c"/><linearGradient id="bs" x1="715.58" y1="359.15" x2="962.71" y2="359.15" xlink:href="#c"/><linearGradient id="bt" x1="721.07" y1="358.8" x2="972.13" y2="358.8" xlink:href="#c"/><linearGradient id="bu" x1="726.56" y1="358.45" x2="981.55" y2="358.45" xlink:href="#c"/><linearGradient id="bv" x1="732.05" y1="358.1" x2="990.97" y2="358.1" xlink:href="#c"/><linearGradient id="bw" x1="737.54" y1="357.74" x2="1000.39" y2="357.74" xlink:href="#c"/><linearGradient id="bx" x1="739.79" y1="357.94" x2="1013.69" y2="357.94" xlink:href="#c"/><linearGradient id="by" x1="757.29" y1="359" x2="1027.3" y2="359" xlink:href="#c"/><linearGradient id="bz" x1="774.78" y1="360.06" x2="1040.92" y2="360.06" xlink:href="#c"/><linearGradient id="ca" x1="792.27" y1="361.13" x2="1054.54" y2="361.13" xlink:href="#c"/><linearGradient id="cb" x1="809.76" y1="362.19" x2="1068.15" y2="362.19" xlink:href="#c"/><linearGradient id="cc" x1="827.26" y1="363.25" x2="1081.77" y2="363.25" xlink:href="#c"/><linearGradient id="cd" x1="844.75" y1="364.31" x2="1095.38" y2="364.31" xlink:href="#c"/><linearGradient id="ce" x1="862.25" y1="365.37" x2="1109" y2="365.37" xlink:href="#c"/><linearGradient id="cf" x1="879.74" y1="366.43" x2="1122.61" y2="366.43" xlink:href="#c"/><linearGradient id="cg" x1="897.24" y1="367.49" x2="1136.23" y2="367.49" xlink:href="#c"/><linearGradient id="ch" x1="914.74" y1="368.55" x2="1149.84" y2="368.55" xlink:href="#c"/><linearGradient id="ci" x1="932.24" y1="369.6" x2="1163.46" y2="369.6" xlink:href="#c"/><linearGradient id="cj" x1="949.74" y1="370.66" x2="1177.07" y2="370.66" xlink:href="#c"/><linearGradient id="ck" x1="967.24" y1="371.72" x2="1190.68" y2="371.72" xlink:href="#c"/><linearGradient id="cl" x1="984.75" y1="372.78" x2="1204.3" y2="372.78" gradientTransform="translate(1145.95 -782.34) rotate(73.74)" xlink:href="#c"/></defs><title>bg</title><g class="b"><rect class="c" x="144.3" y="70.94" width="841.89" height="595.28"/><polygon class="d" points="127.61 699.75 11.43 493.04 59.76 461.31 47.82 395.62 48.25 395.08 106.22 323.73 0 14.03 2.84 13.06 109.6 324.33 51.02 396.44 63.07 462.73 15.41 494.01 130.22 698.27 127.61 699.75"/><polygon class="e" points="132.45 699.69 28.14 492.97 58.43 471.51 73.85 460.09 61.83 394.69 94.44 350.5 116.45 322.02 21.64 13.23 24.51 12.35 119.77 322.63 96.83 352.3 65.01 395.43 77.14 461.39 60.19 473.94 31.98 493.93 135.13 698.33 132.45 699.69"/><polygon class="f" points="137.29 699.62 44.85 492.91 73.83 470.73 87.95 458.87 75.83 393.76 105.52 349.13 126.67 320.31 43.28 12.44 46.18 11.65 129.94 320.92 107.97 350.85 79 394.41 91.22 460.04 75.7 473.06 48.55 493.85 140.03 698.4 137.29 699.62"/><polygon class="g" points="142.14 699.55 61.55 492.85 89.18 469.98 102.04 457.65 89.84 392.84 90.13 392.36 116.65 347.68 136.89 318.6 64.92 11.64 67.84 10.95 140.12 319.22 119.14 349.35 93 393.4 105.29 458.69 91.14 472.26 65.13 493.78 144.94 698.47 142.14 699.55"/><polygon class="h" points="146.99 699.48 78.25 492.78 104.56 469.22 116.13 456.43 103.85 391.92 127.75 346.29 147.11 316.89 86.57 10.84 89.51 10.25 150.29 317.52 130.29 347.88 106.99 392.38 119.36 457.34 106.62 471.41 81.72 493.7 149.84 698.54 146.99 699.48"/><polygon class="i" points="151.84 699.41 94.94 492.72 119.94 468.47 130.23 455.21 117.86 391 138.84 344.9 157.33 315.18 108.21 10.03 111.18 9.56 160.47 315.81 141.44 346.4 120.99 391.37 133.43 455.98 122.11 470.55 98.31 493.63 154.73 698.61 151.84 699.41"/><polygon class="j" points="156.7 699.33 111.63 492.65 135.32 467.73 144.32 454 131.87 390.08 149.94 343.51 167.55 313.47 129.86 9.23 132.84 8.86 170.65 314.11 152.59 344.92 134.98 390.36 147.5 454.63 137.59 469.69 114.9 493.56 159.63 698.69 156.7 699.33"/><polygon class="k" points="161.56 699.25 128.31 492.58 150.7 466.99 158.42 452.79 145.88 389.16 161.04 342.12 177.76 311.76 151.51 8.42 154.5 8.17 180.83 312.41 163.73 343.44 148.97 389.34 161.57 453.27 153.07 468.83 131.5 493.49 164.52 698.77 161.56 699.25"/><polygon class="l" points="166.42 699.16 144.99 492.51 166.09 466.25 172.52 451.57 159.89 388.24 159.97 387.91 172.06 340.88 187.98 310.05 173.16 7.62 176.16 7.47 191.01 310.71 174.88 341.96 162.96 388.32 175.64 451.91 168.68 467.82 148.1 493.43 169.4 698.86 166.42 699.16"/><polygon class="m" points="171.29 699.08 161.66 492.44 181.48 465.52 186.61 450.36 173.9 387.32 183.23 339.34 198.19 308.34 194.81 6.81 197.81 6.78 201.19 309.01 186.02 340.47 176.96 387.31 189.71 450.56 184.17 466.92 164.71 493.36 174.28 698.94 171.29 699.08"/><polygon class="n" points="179.16 699.03 176.16 699 178.33 492.36 196.87 464.79 200.71 449.14 187.91 386.4 194.24 338.16 208.4 306.63 216.47 6 219.47 6.08 211.38 307.31 197.16 338.99 190.95 386.29 203.78 449.2 199.66 466.02 199.51 466.24 181.32 493.29 179.16 699.03"/><polygon class="o" points="184.03 699.11 181.04 698.91 195 492.29 212.27 464.06 214.8 447.92 201.92 385.48 205.34 336.8 218.6 304.91 238.13 5.2 241.12 5.39 221.57 305.61 208.3 337.5 204.94 385.27 217.85 447.85 215.14 465.12 197.94 493.23 184.03 699.11"/><polygon class="p" points="188.9 699.2 185.92 698.83 211.66 492.21 227.67 463.34 228.9 446.7 215.93 384.55 215.93 384.39 216.44 335.44 228.81 303.2 259.79 4.39 262.77 4.7 231.75 303.9 219.43 336.01 218.93 384.26 231.92 446.5 230.62 464.22 214.56 493.16 188.9 699.2"/><polygon class="q" points="193.76 699.28 190.81 698.74 228.31 492.14 243.08 462.61 243 445.48 229.94 383.63 229.93 383.51 227.54 334.08 239.02 301.49 281.45 3.58 284.42 4.01 241.94 302.21 241.9 302.35 230.57 334.52 232.92 383.25 245.99 445.16 246.09 463.31 231.19 493.1 193.76 699.28"/><polygon class="r" points="198.62 699.36 195.7 698.66 244.97 492.06 245.02 491.94 258.5 461.89 257.09 444.25 243.94 382.63 238.65 332.72 249.22 299.78 303.12 2.78 306.07 3.31 252.14 300.5 252.11 300.6 241.7 333.03 246.92 382.23 260.07 443.91 261.55 462.41 247.82 493.04 198.62 699.36"/><polygon class="s" points="203.47 699.43 200.6 698.59 261.61 491.99 261.64 491.93 273.92 461.16 271.18 442.97 257.97 381.82 249.75 331.36 259.44 298.02 324.78 1.97 327.71 2.62 262.34 298.76 252.82 331.55 260.91 381.26 274.13 442.43 277.01 461.51 264.45 492.97 203.47 699.43"/><polygon class="t" points="208.32 699.51 205.49 698.51 289.35 460.43 260.86 330 346.45 1.17 349.35 1.92 263.95 330.06 292.46 460.62 292.32 461.02 208.32 699.51"/><polygon class="u" points="217.32 699.51 214.49 698.51 298.35 460.43 269.86 330 355.45 1.17 358.35 1.92 272.95 330.06 301.46 460.62 301.32 461.02 217.32 699.51"/><polygon class="v" points="223.31 699.53 220.5 698.49 313.62 447.12 282.33 319.24 282.42 318.87 364.64 1.17 367.54 1.92 285.42 319.26 316.75 447.3 316.59 447.73 223.31 699.53"/><polygon class="w" points="229.31 699.55 226.51 698.47 328.89 433.82 294.79 308.48 294.89 308.09 373.82 1.17 376.73 1.92 297.89 308.46 332.04 433.98 331.86 434.44 229.31 699.55"/><polygon class="x" points="235.3 699.57 232.52 698.45 344.16 420.52 307.25 297.72 307.36 297.32 383.01 1.17 385.92 1.92 310.37 297.65 347.33 420.66 235.3 699.57"/><polygon class="y" points="241.29 699.59 238.52 698.43 359.43 407.22 319.72 286.96 392.19 1.18 395.1 1.91 322.84 286.85 362.63 407.33 362.41 407.85 241.29 699.59"/><polygon class="z" points="247.29 699.6 244.53 698.42 374.69 393.92 332.18 276.2 332.29 275.76 401.38 1.18 404.29 1.91 335.31 276.05 377.92 394.01 377.69 394.55 247.29 699.6"/><polygon class="aa" points="253.28 699.61 250.53 698.41 389.96 380.62 344.64 265.45 410.57 1.18 413.48 1.91 347.79 265.24 393.21 380.68 392.96 381.25 253.28 699.61"/><polygon class="ab" points="259.27 699.62 256.54 698.4 405.23 367.32 357.11 254.69 357.23 254.2 419.75 1.19 422.67 1.91 360.26 254.44 408.5 367.36 408.24 367.95 259.27 699.62"/><polygon class="ac" points="265.27 699.63 262.54 698.38 420.5 354.03 369.57 243.94 369.69 243.43 428.94 1.19 431.85 1.9 372.73 243.63 423.8 354.02 265.27 699.63"/><polygon class="ad" points="271.26 699.65 268.55 698.37 435.76 340.74 382.03 233.18 438.13 1.19 441.04 1.9 385.21 232.82 439.09 340.69 271.26 699.65"/><polygon class="ae" points="277.26 699.65 274.55 698.37 451.03 327.45 394.5 222.43 394.63 221.87 447.31 1.2 450.23 1.89 397.68 222.01 454.39 327.36 277.26 699.65"/><polygon class="af" points="283.25 699.66 280.55 698.36 466.29 314.16 406.96 211.68 407.1 211.1 456.5 1.2 459.42 1.89 410.15 211.21 469.69 314.03 283.25 699.66"/><polygon class="ag" points="289.25 699.67 286.56 698.35 481.56 300.87 419.42 200.93 419.56 200.32 465.68 1.21 468.61 1.88 422.62 200.4 484.98 300.69 289.25 699.67"/><polygon class="ah" points="295.25 699.68 292.56 698.34 496.82 287.58 431.89 190.18 432.03 189.55 474.87 1.21 477.8 1.88 435.1 189.58 500.28 287.36 499.89 288.14 295.25 699.68"/><polygon class="ai" points="301.24 699.68 298.56 698.34 512.08 274.29 444.35 179.43 444.5 178.77 484.06 1.22 486.98 1.87 447.57 178.77 515.58 274.02 515.17 274.83 301.24 699.68"/><polygon class="aj" points="307.24 699.69 304.57 698.33 527.35 261 456.81 168.68 493.24 1.23 496.17 1.86 460.04 167.96 530.88 260.69 530.45 261.53 307.24 699.69"/><polygon class="ak" points="313.24 699.7 310.57 698.32 542.61 247.72 469.28 157.93 502.43 1.24 505.36 1.86 472.51 157.15 546.17 247.35 545.73 248.22 313.24 699.7"/><polygon class="al" points="319.24 699.7 316.57 698.32 554.6 235.75 481.26 150.43 481.44 149.68 517.43 1.19 520.35 1.9 484.53 149.64 558.19 235.32 557.73 236.22 319.24 699.7"/><polygon class="am" points="342.99 701.82 340.26 700.57 446.44 468.31 512.76 341.86 560.42 237.9 492.98 150.82 500.85 114.14 531.22 3.87 534.11 4.67 503.76 114.86 496.21 150.09 563.9 237.5 515.46 343.18 449.13 469.63 342.99 701.82"/><polygon class="an" points="366.75 703.93 363.96 702.82 457.3 469.56 457.33 469.49 524.16 344.52 566.23 240.06 504.71 151.21 511.54 114.57 545 6.56 547.87 7.44 514.43 115.38 507.88 150.53 569.62 239.69 526.84 345.86 460.02 470.83 366.75 703.93"/><polygon class="ao" points="390.5 706.04 387.66 705.07 468.14 470.85 468.2 470.74 535.57 347.15 572.04 242.22 516.43 151.6 522.21 115.08 558.79 9.24 561.63 10.22 525.09 115.94 519.56 150.97 575.34 241.87 538.27 348.48 470.89 472.06 390.5 706.04"/><polygon class="ap" points="414.25 708.15 411.37 707.32 478.98 472.13 479.06 471.98 546.99 349.78 577.85 244.38 528.15 151.99 532.88 115.6 572.58 11.92 575.38 12.99 535.75 116.5 531.25 151.41 581.07 244.05 549.69 351.09 481.77 473.29 414.25 708.15"/><polygon class="aq" points="438 710.26 435.07 709.58 489.82 473.42 489.93 473.23 558.4 352.41 583.64 246.54 539.86 152.38 543.47 116.32 543.56 116.11 586.37 14.6 589.13 15.76 546.41 117.06 542.93 151.86 586.8 246.23 561.22 353.52 561.12 353.7 492.65 474.52 438 710.26"/><polygon class="ar" points="461.74 712.36 458.78 711.84 500.66 474.71 500.8 474.48 569.81 355.04 589.44 248.71 551.58 152.77 554.12 116.87 554.24 116.62 600.16 17.28 602.89 18.54 557.08 117.63 554.62 152.3 592.54 248.41 572.67 356.09 572.54 356.32 503.53 475.75 461.74 712.36"/><polygon class="as" points="485.47 714.46 482.5 714.1 511.5 476 581.22 357.67 595.23 250.87 563.29 153.16 564.77 117.42 613.96 19.96 616.64 21.31 567.74 118.19 566.31 152.74 598.29 250.58 598.24 250.92 584.12 358.67 514.4 476.98 485.47 714.46"/><polygon class="at" points="509.21 716.57 506.21 716.36 522.34 477.28 592.63 360.3 601.01 253.03 575 153.55 575 153.35 575.42 117.97 575.6 117.64 627.75 22.64 630.38 24.08 578.41 118.76 578 153.18 604.04 252.76 604.02 253.01 595.57 361.24 595.38 361.54 525.29 478.21 509.21 716.57"/><polygon class="au" points="532.94 718.67 529.94 718.63 533.18 478.57 604.04 362.93 606.79 255.2 586.7 153.94 586.7 153.81 586.07 118.52 586.28 118.16 641.55 25.32 644.13 26.86 589.08 119.32 589.7 153.62 609.79 254.94 609.79 255.11 607.02 363.81 606.81 364.16 536.17 479.44 532.94 718.67"/><polygon class="av" points="553.66 720.89 544.01 479.86 544.26 479.47 615.45 365.56 612.56 257.36 598.4 154.27 596.71 119.07 596.97 118.67 655.35 28 657.87 29.63 599.75 119.89 601.4 154.06 615.56 257.2 618.47 366.39 618.23 366.77 547.05 480.67 556.66 720.77 553.66 720.89"/><polygon class="aw" points="577.4 723.15 554.85 481.15 555.13 480.71 626.85 368.19 607.35 119.62 669.15 30.69 671.62 32.4 610.43 120.46 629.92 368.96 629.65 369.38 557.93 481.89 580.38 722.87 577.4 723.15"/><polygon class="ax" points="604.41 723.26 563.82 481.2 564.13 480.71 635.85 368.19 616.35 119.62 678.15 30.69 680.62 32.4 619.43 120.46 638.92 368.96 638.65 369.38 566.97 481.84 607.37 722.76 604.41 723.26"/><polygon class="ay" points="609.04 723.2 577.96 481.32 578.23 480.88 646.63 366.65 634.81 118.46 635.07 118.06 693.54 28 696.05 29.63 637.85 119.29 649.66 367.41 649.43 367.8 581.07 481.97 612.01 722.82 609.04 723.2"/><polygon class="az" points="613.67 723.14 592.11 481.44 657.4 365.11 653.27 117.3 708.92 25.31 711.49 26.87 656.28 118.12 660.41 365.87 660.21 366.22 595.18 482.1 616.65 722.88 613.67 723.14"/><polygon class="ba" points="618.3 723.08 606.25 481.56 606.44 481.2 668.17 363.57 671.72 116.14 671.91 115.81 724.3 22.63 726.92 24.1 674.71 116.95 671.16 364.33 670.99 364.64 609.29 482.23 621.29 722.93 618.3 723.08"/><polygon class="bb" points="622.93 723.02 620.39 481.69 678.93 362.02 690.17 114.98 690.33 114.69 739.69 19.94 742.35 21.33 693.14 115.78 681.9 362.78 681.77 363.06 623.4 482.37 625.93 722.99 622.93 723.02"/><polygon class="bc" points="630.57 723.05 627.57 722.97 634.53 481.81 634.66 481.53 689.7 360.48 708.63 113.82 708.75 113.57 755.08 17.26 757.78 18.56 711.57 114.61 692.65 361.24 692.54 361.48 637.51 482.5 630.57 723.05"/><polygon class="bd" points="635.2 723.11 632.21 722.91 648.67 481.93 648.77 481.69 700.47 358.94 727.08 112.66 727.17 112.44 770.46 14.57 773.21 15.79 730.01 113.44 703.4 359.69 703.32 359.9 651.63 482.63 635.2 723.11"/><polygon class="be" points="639.83 723.17 636.85 722.85 662.81 482.04 662.88 481.86 711.23 357.39 745.52 111.5 745.59 111.33 785.85 11.89 788.63 13.02 748.44 112.28 714.15 358.15 714.09 358.31 665.75 482.76 639.83 723.17"/><polygon class="bf" points="644.46 723.23 641.49 722.79 676.94 482.16 721.99 355.85 763.97 110.33 764.02 110.2 801.25 9.21 804.06 10.25 766.88 111.11 724.91 356.61 724.86 356.73 679.86 482.89 644.46 723.23"/><polygon class="bg" points="649.09 723.28 646.14 722.73 691.07 482.28 691.1 482.19 732.75 354.3 782.42 109.17 782.45 109.08 816.64 6.53 819.48 7.47 785.32 109.95 735.66 355.07 735.63 355.15 693.98 483.03 649.09 723.28"/><polygon class="bh" points="653.71 723.34 650.79 722.68 705.19 482.45 743.53 352.72 800.85 108.05 832.03 3.84 834.91 4.7 803.75 108.82 746.42 353.48 708.09 483.2 653.71 723.34"/><rect class="bi" x="379.59" y="360.78" width="746.57" height="3" transform="translate(209.14 996.64) rotate(-75.1)"/><rect class="bj" x="389.14" y="361.11" width="750.98" height="3" transform="translate(207.23 999.36) rotate(-74.17)"/><polygon class="bk" points="669.09 723.65 666.23 722.73 764.53 418.47 816.61 194.84 875.06 0.88 877.93 1.74 819.5 195.61 767.42 419.27 767.4 419.33 669.09 723.65"/><polygon class="bl" points="674.53 723.03 671.71 722 781.19 420.7 822.42 195.36 884.49 0.81 887.35 1.72 825.33 196.09 784.09 421.49 784.05 421.6 674.53 723.03"/><polygon class="bm" points="679.97 722.41 677.19 721.29 797.84 422.93 828.22 195.92 828.26 195.78 893.93 0.74 896.77 1.69 831.15 196.6 800.77 423.7 800.7 423.88 679.97 722.41"/><polygon class="bn" points="685.41 721.79 682.67 720.57 814.5 425.16 834.01 196.48 834.08 196.3 903.36 0.67 906.19 1.67 836.97 197.12 817.44 425.92 817.34 426.15 685.41 721.79"/><polygon class="bo" points="690.85 721.17 688.15 719.85 831.15 427.38 839.81 197.05 839.89 196.82 912.8 0.6 915.61 1.64 842.79 197.64 834.12 428.13 833.98 428.42 690.85 721.17"/><polygon class="bp" points="696.29 720.54 693.64 719.13 847.8 429.61 845.6 197.61 845.71 197.34 922.23 0.53 925.03 1.62 848.61 198.16 850.8 430.35 850.62 430.69 696.29 720.54"/><polygon class="bq" points="701.72 719.92 699.12 718.42 864.44 431.84 851.4 198.18 851.53 197.86 931.67 0.46 934.45 1.59 854.43 198.68 867.49 432.57 867.26 432.95 701.72 719.92"/><polygon class="br" points="707.16 719.29 704.61 717.71 881.09 434.07 857.19 198.74 857.34 198.38 941.11 0.4 943.87 1.56 860.25 199.2 884.17 434.78 883.9 435.22 707.16 719.29"/><polygon class="bs" points="712.59 718.66 710.1 716.99 897.73 436.3 862.98 199.3 863.16 198.91 950.54 0.33 953.29 1.54 866.08 199.72 900.86 437 900.54 437.48 712.59 718.66"/><polygon class="bt" points="718.02 718.03 715.59 716.28 914.37 438.52 868.78 199.86 868.98 199.43 959.98 0.26 962.71 1.51 871.9 200.24 917.55 439.22 917.18 439.75 718.02 718.03"/><polygon class="bu" points="723.46 717.4 721.07 715.58 931 440.75 874.57 200.43 969.42 0.2 972.13 1.48 877.73 200.76 934.25 441.44 933.82 442 723.46 717.4"/><polygon class="bv" points="728.89 716.76 726.56 714.87 947.64 442.97 880.36 200.99 880.61 200.47 978.85 0.13 981.55 1.45 883.55 201.28 950.94 443.66 950.45 444.26 728.89 716.76"/><polygon class="bw" points="734.32 716.13 732.05 714.16 964.27 445.19 886.15 201.55 886.43 201 988.29 0.07 990.97 1.42 889.38 201.81 967.64 445.88 734.32 716.13"/><polygon class="bx" points="739.75 715.49 737.54 713.46 980.9 447.42 891.93 202.11 997.73 0 1000.39 1.39 895.21 202.33 984.34 448.1 983.73 448.77 739.75 715.49"/><polygon class="by" points="741.97 715.04 739.79 712.98 991.43 448.17 901.21 202.41 1011.05 0.83 1013.69 2.26 904.49 202.66 994.89 448.88 994.25 449.56 741.97 715.04"/><polygon class="bz" points="759.52 717.15 757.29 715.15 997.58 446.61 918.52 202.2 918.82 201.64 1024.65 0.85 1027.3 2.25 921.77 202.48 1000.97 447.33 759.52 717.15"/><polygon class="ca" points="777.07 719.26 774.78 717.33 1003.73 445.06 935.84 201.98 936.11 201.46 1038.24 0.86 1040.92 2.23 939.04 202.3 1007.05 445.78 1006.54 446.38 777.07 719.26"/><polygon class="cb" points="794.63 721.37 792.27 719.51 1009.88 443.5 953.16 201.77 953.39 201.28 1051.84 0.88 1054.54 2.21 956.32 202.13 1013.13 444.23 794.63 721.37"/><polygon class="cc" points="812.18 723.47 809.76 721.69 1016.02 441.95 970.47 201.55 1065.44 0.9 1068.15 2.19 973.6 201.95 1019.21 442.68 1018.82 443.2 812.18 723.47"/><polygon class="cd" points="829.73 725.57 827.26 723.87 1022.16 440.39 987.79 201.33 987.97 200.93 1079.04 0.92 1081.77 2.17 990.88 201.77 1025.3 441.13 1024.97 441.61 829.73 725.57"/><polygon class="ce" points="847.28 727.67 844.75 726.06 1028.3 438.84 1005.1 201.11 1005.26 200.75 1092.63 0.94 1095.38 2.15 1008.16 201.6 1031.39 439.58 1031.11 440.01 847.28 727.67"/><polygon class="cf" points="864.83 729.77 862.25 728.25 1034.44 437.28 1022.41 200.89 1022.54 200.58 1106.23 0.96 1109 2.13 1025.44 201.43 1037.48 438.03 1037.25 438.42 864.83 729.77"/><polygon class="cg" points="882.37 731.87 879.74 730.43 1040.57 435.72 1039.72 200.68 1039.83 200.41 1119.83 0.99 1122.61 2.1 1042.73 201.25 1043.58 436.48 1043.39 436.82 882.37 731.87"/><polygon class="ch" points="899.92 733.97 897.24 732.62 1046.71 434.16 1057.03 200.46 1057.12 200.23 1133.43 1.01 1136.23 2.08 1060.01 201.08 1049.67 434.94 1049.53 435.22 899.92 733.97"/><polygon class="ci" points="917.47 736.06 914.74 734.81 1052.84 432.61 1074.34 200.24 1074.41 200.06 1147.02 1.03 1149.84 2.06 1077.3 200.9 1055.77 433.39 1055.67 433.62 917.47 736.06"/><polygon class="cj" points="935.01 738.15 932.24 737.01 1058.96 431.05 1091.65 200.02 1091.7 199.88 1160.62 1.05 1163.46 2.04 1094.58 200.73 1061.88 431.84 1061.81 432.02 935.01 738.15"/><polygon class="ck" points="952.55 740.25 949.74 739.2 1065.08 429.49 1108.96 199.8 1108.99 199.71 1174.22 1.08 1177.07 2.01 1111.87 200.55 1067.98 430.3 1067.94 430.41 952.55 740.25"/><polygon class="cl" points="970.09 742.34 967.24 741.39 1071.2 427.93 1126.25 199.63 1187.82 1.1 1190.68 1.99 1129.14 200.43 1074.09 428.75 1074.07 428.81 970.09 742.34"/><rect class="cm" x="707.81" y="371.28" width="773.43" height="3" transform="translate(430.21 1319.16) rotate(-73.74)"/></g></svg>